<svg width="18" height="19" viewBox="0 0 18 19" fill="none" xmlns="http://www.w3.org/2000/svg">
<path d="M12.8753 18.5C12.532 18.5 12.1887 18.4792 11.8349 18.4375C11.3667 18.3958 10.8986 18.3124 10.4408 18.2186C9.04663 17.9059 7.71492 17.3535 6.46643 16.5718C5.08269 15.7067 3.86542 14.6123 2.84582 13.3095C1.79501 11.9754 1.01471 10.5058 0.536119 8.94239C0.338442 8.31702 0.213593 7.72293 0.130361 7.14968C0.0887447 6.837 0.0471285 6.52432 0.0263204 6.21164C0.0055123 5.86769 -0.0152958 5.57585 0.0159163 5.31529C0.0471285 4.96092 0.119957 4.61697 0.203189 4.29386C0.328038 3.85611 0.536119 3.50174 0.837837 3.2099C1.03551 3.02229 1.23319 2.81384 1.43087 2.61581L3.39723 0.645918C3.45966 0.583382 3.53249 0.531268 3.61572 0.5C3.65733 0.5 3.68855 0.5 3.70935 0.5C3.76138 0.5 3.80299 0.5 3.84461 0.510423C3.96946 0.541691 4.04228 0.583382 4.10471 0.687609C4.23996 0.906485 4.36481 1.14621 4.47926 1.37551C4.8642 2.17805 5.23875 3.07441 5.65491 4.18964C5.75895 4.46063 5.86299 4.74204 5.92542 5.02345C5.95663 5.17979 5.96703 5.29444 5.93582 5.38825C5.91501 5.48205 5.85259 5.58628 5.75895 5.70093L4.66653 7.04545C4.45845 7.30602 4.30239 7.77504 4.39602 8.08772C4.57289 8.62971 4.78097 9.07788 5.04107 9.53648C5.49885 10.3494 6.10229 11.1207 6.83057 11.8295C7.57966 12.5695 8.35997 13.1427 9.2027 13.5909C9.60845 13.8098 10.0038 13.9765 10.3992 14.0912C10.5032 14.1225 10.6072 14.1329 10.7113 14.1329C10.9402 14.1329 11.1691 14.0599 11.3563 13.9036C11.3563 13.9036 12.4904 12.976 12.8129 12.7154C12.8857 12.6529 12.969 12.6112 13.0522 12.5591C13.0626 12.5591 13.1042 12.5382 13.1666 12.5278C13.1874 12.5278 13.2083 12.5278 13.2291 12.5278C13.3539 12.5278 13.4371 12.5382 13.5308 12.5695C13.8429 12.6529 14.1446 12.7675 14.4463 12.8822C15.5388 13.2991 16.3711 13.643 17.1202 14.0078C17.3595 14.1225 17.6196 14.258 17.8485 14.4143C17.9837 14.4977 18.0149 14.727 17.9941 14.8625C17.9941 14.8937 17.9733 14.9667 17.8381 15.1022L15.237 17.7079C15.029 17.9163 14.7897 18.0727 14.5088 18.1873C14.2591 18.2915 13.9678 18.3645 13.6244 18.427C13.4163 18.4583 13.1666 18.5 12.9377 18.5H12.8753Z" fill="#D5AF34"/>
</svg>
