<svg width="324" height="74" viewBox="0 0 324 74" fill="none" xmlns="http://www.w3.org/2000/svg">
<g filter="url(#filter0_di_12738_7752)">
<path d="M12.001 6H312.001V46C312.001 51.5228 307.524 56 302.001 56H22.001C16.4781 56 12.001 51.5228 12.001 46V6Z" fill="white"/>
</g>
<path d="M127.575 34.4659V33.0128L131.219 27.2727H132.472V29.2841H131.73L129.433 32.919V32.9872H134.611V34.4659H127.575ZM131.764 36V34.0227L131.798 33.3793V27.2727H133.528V36H131.764ZM136.754 36.1108C136.473 36.1108 136.232 36.0114 136.03 35.8125C135.831 35.6108 135.732 35.3693 135.732 35.0881C135.732 34.8097 135.831 34.571 136.03 34.3722C136.232 34.1733 136.473 34.0739 136.754 34.0739C137.027 34.0739 137.266 34.1733 137.47 34.3722C137.675 34.571 137.777 34.8097 137.777 35.0881C137.777 35.2756 137.729 35.4474 137.632 35.6037C137.538 35.7571 137.415 35.8807 137.261 35.9744C137.108 36.0653 136.939 36.1108 136.754 36.1108ZM142.154 36.1193C141.498 36.1193 140.914 36.0128 140.403 35.7997C139.895 35.5838 139.495 35.2898 139.206 34.9176C138.916 34.5455 138.771 34.1236 138.771 33.652C138.771 33.2884 138.853 32.9545 139.018 32.6506C139.186 32.3438 139.413 32.0895 139.7 31.8878C139.987 31.6832 140.308 31.5526 140.663 31.4957V31.4361C140.197 31.3423 139.819 31.1165 139.529 30.7585C139.24 30.3977 139.095 29.9787 139.095 29.5014C139.095 29.0497 139.227 28.6477 139.491 28.2955C139.755 27.9403 140.118 27.6619 140.578 27.4602C141.041 27.2557 141.566 27.1534 142.154 27.1534C142.743 27.1534 143.267 27.2557 143.727 27.4602C144.19 27.6648 144.554 27.9446 144.818 28.2997C145.082 28.652 145.216 29.0526 145.218 29.5014C145.216 29.9815 145.068 30.4006 144.775 30.7585C144.483 31.1165 144.108 31.3423 143.65 31.4361V31.4957C144 31.5526 144.316 31.6832 144.6 31.8878C144.887 32.0895 145.115 32.3438 145.282 32.6506C145.453 32.9545 145.539 33.2884 145.542 33.652C145.539 34.1236 145.393 34.5455 145.103 34.9176C144.814 35.2898 144.413 35.5838 143.902 35.7997C143.393 36.0128 142.811 36.1193 142.154 36.1193ZM142.154 34.7642C142.447 34.7642 142.703 34.7116 142.922 34.6065C143.14 34.4986 143.311 34.3509 143.433 34.1634C143.558 33.973 143.62 33.7543 143.62 33.5071C143.62 33.2543 143.556 33.0312 143.429 32.8381C143.301 32.642 143.127 32.4886 142.909 32.3778C142.69 32.2642 142.439 32.2074 142.154 32.2074C141.873 32.2074 141.622 32.2642 141.4 32.3778C141.179 32.4886 141.004 32.642 140.876 32.8381C140.751 33.0312 140.689 33.2543 140.689 33.5071C140.689 33.7543 140.75 33.973 140.872 34.1634C140.994 34.3509 141.166 34.4986 141.387 34.6065C141.609 34.7116 141.865 34.7642 142.154 34.7642ZM142.154 30.8651C142.399 30.8651 142.616 30.8153 142.806 30.7159C142.997 30.6165 143.146 30.4787 143.254 30.3026C143.362 30.1264 143.416 29.9233 143.416 29.6932C143.416 29.4659 143.362 29.267 143.254 29.0966C143.146 28.9233 142.998 28.7884 142.811 28.6918C142.623 28.5923 142.404 28.5426 142.154 28.5426C141.907 28.5426 141.689 28.5923 141.498 28.6918C141.308 28.7884 141.159 28.9233 141.051 29.0966C140.946 29.267 140.893 29.4659 140.893 29.6932C140.893 29.9233 140.947 30.1264 141.055 30.3026C141.163 30.4787 141.312 30.6165 141.502 30.7159C141.693 30.8153 141.91 30.8651 142.154 30.8651ZM150.651 26.8636L147.838 37.3125H146.274L149.087 26.8636H150.651ZM154.696 36.1193C154.093 36.1193 153.556 36.0085 153.085 35.7869C152.616 35.5653 152.244 35.2599 151.968 34.8707C151.693 34.4815 151.549 34.0355 151.538 33.5327H153.328C153.348 33.8707 153.49 34.1449 153.754 34.3551C154.018 34.5653 154.332 34.6705 154.696 34.6705C154.985 34.6705 155.241 34.6065 155.463 34.4787C155.687 34.348 155.862 34.1676 155.987 33.9375C156.115 33.7045 156.179 33.4375 156.179 33.1364C156.179 32.8295 156.113 32.5597 155.983 32.3267C155.855 32.0937 155.677 31.9119 155.45 31.7812C155.223 31.6506 154.963 31.5838 154.67 31.581C154.414 31.581 154.166 31.6335 153.924 31.7386C153.686 31.8437 153.5 31.9872 153.366 32.169L151.725 31.875L152.139 27.2727H157.474V28.7812H153.66L153.434 30.9673H153.485C153.639 30.7514 153.87 30.5724 154.18 30.4304C154.49 30.2884 154.836 30.2173 155.22 30.2173C155.745 30.2173 156.214 30.3409 156.626 30.5881C157.038 30.8352 157.363 31.1747 157.602 31.6065C157.841 32.0355 157.958 32.5298 157.956 33.0895C157.958 33.6776 157.822 34.2003 157.547 34.6577C157.274 35.1122 156.892 35.4702 156.4 35.7315C155.912 35.9901 155.343 36.1193 154.696 36.1193ZM162.071 36V27.2727H165.514C166.173 27.2727 166.736 27.3906 167.202 27.6264C167.67 27.8594 168.027 28.1903 168.271 28.6193C168.518 29.0455 168.642 29.5469 168.642 30.1236C168.642 30.7031 168.517 31.2017 168.267 31.6193C168.017 32.0341 167.655 32.3523 167.18 32.5739C166.709 32.7955 166.138 32.9062 165.467 32.9062H163.162V31.4233H165.169C165.521 31.4233 165.814 31.375 166.047 31.2784C166.28 31.1818 166.453 31.0369 166.567 30.8438C166.683 30.6506 166.741 30.4105 166.741 30.1236C166.741 29.8338 166.683 29.5895 166.567 29.3906C166.453 29.1918 166.278 29.0412 166.043 28.9389C165.81 28.8338 165.516 28.7812 165.161 28.7812H163.916V36H162.071ZM166.784 32.0284L168.953 36H166.916L164.794 32.0284H166.784ZM171.778 36.1236C171.361 36.1236 170.989 36.0511 170.662 35.9062C170.335 35.7585 170.077 35.5412 169.886 35.2543C169.699 34.9645 169.605 34.6037 169.605 34.1719C169.605 33.8082 169.672 33.5028 169.805 33.2557C169.939 33.0085 170.121 32.8097 170.351 32.6591C170.581 32.5085 170.842 32.3949 171.135 32.3182C171.43 32.2415 171.74 32.1875 172.064 32.1562C172.445 32.1165 172.751 32.0795 172.984 32.0455C173.217 32.0085 173.386 31.9545 173.491 31.8835C173.597 31.8125 173.649 31.7074 173.649 31.5682V31.5426C173.649 31.2727 173.564 31.0639 173.393 30.9162C173.226 30.7685 172.987 30.6946 172.678 30.6946C172.351 30.6946 172.091 30.767 171.898 30.9119C171.705 31.054 171.577 31.233 171.514 31.4489L169.835 31.3125C169.92 30.9148 170.088 30.571 170.338 30.2812C170.588 29.9886 170.911 29.7642 171.305 29.608C171.703 29.4489 172.163 29.3693 172.686 29.3693C173.05 29.3693 173.398 29.4119 173.73 29.4972C174.065 29.5824 174.362 29.7145 174.621 29.8935C174.882 30.0724 175.088 30.3026 175.239 30.5838C175.389 30.8622 175.464 31.196 175.464 31.5852V36H173.743V35.0923H173.692C173.587 35.2969 173.446 35.4773 173.27 35.6335C173.094 35.7869 172.882 35.9077 172.635 35.9957C172.388 36.081 172.102 36.1236 171.778 36.1236ZM172.298 34.8707C172.565 34.8707 172.801 34.8182 173.006 34.7131C173.21 34.6051 173.371 34.4602 173.487 34.2784C173.604 34.0966 173.662 33.8906 173.662 33.6605V32.9659C173.605 33.0028 173.527 33.0369 173.428 33.0682C173.331 33.0966 173.222 33.1236 173.099 33.1491C172.977 33.1719 172.855 33.1932 172.733 33.2131C172.611 33.2301 172.5 33.2457 172.401 33.2599C172.188 33.2912 172.001 33.3409 171.842 33.4091C171.683 33.4773 171.56 33.5696 171.472 33.6861C171.384 33.7997 171.339 33.9418 171.339 34.1122C171.339 34.3594 171.429 34.5483 171.608 34.679C171.79 34.8068 172.02 34.8707 172.298 34.8707ZM180.354 29.4545V30.8182H176.413V29.4545H180.354ZM177.308 27.8864H179.123V33.9886C179.123 34.1562 179.148 34.2869 179.2 34.3807C179.251 34.4716 179.322 34.5355 179.413 34.5724C179.506 34.6094 179.614 34.6278 179.737 34.6278C179.822 34.6278 179.907 34.6207 179.992 34.6065C180.077 34.5895 180.143 34.5767 180.188 34.5682L180.474 35.919C180.383 35.9474 180.255 35.9801 180.09 36.017C179.925 36.0568 179.725 36.081 179.489 36.0895C179.052 36.1065 178.668 36.0483 178.339 35.9148C178.012 35.7812 177.758 35.5739 177.576 35.2926C177.394 35.0114 177.305 34.6562 177.308 34.2273V27.8864ZM181.537 36V29.4545H183.352V36H181.537ZM182.449 28.6108C182.179 28.6108 181.947 28.5213 181.754 28.3423C181.564 28.1605 181.469 27.9432 181.469 27.6903C181.469 27.4403 181.564 27.2259 181.754 27.0469C181.947 26.8651 182.179 26.7741 182.449 26.7741C182.719 26.7741 182.949 26.8651 183.139 27.0469C183.332 27.2259 183.429 27.4403 183.429 27.6903C183.429 27.9432 183.332 28.1605 183.139 28.3423C182.949 28.5213 182.719 28.6108 182.449 28.6108ZM186.622 32.2159V36H184.806V29.4545H186.537V30.6094H186.613C186.758 30.2287 187.001 29.9276 187.342 29.706C187.683 29.4815 188.096 29.3693 188.582 29.3693C189.037 29.3693 189.433 29.4688 189.771 29.6676C190.109 29.8665 190.372 30.1506 190.559 30.5199C190.747 30.8864 190.841 31.3239 190.841 31.8324V36H189.025V32.1562C189.028 31.7557 188.926 31.4432 188.718 31.2188C188.511 30.9915 188.225 30.8778 187.862 30.8778C187.618 30.8778 187.402 30.9304 187.214 31.0355C187.029 31.1406 186.885 31.294 186.779 31.4957C186.677 31.6946 186.625 31.9347 186.622 32.2159ZM195.22 38.5909C194.632 38.5909 194.128 38.5099 193.707 38.348C193.29 38.1889 192.957 37.9716 192.71 37.696C192.463 37.4205 192.303 37.1108 192.229 36.767L193.908 36.5412C193.959 36.6719 194.04 36.794 194.151 36.9077C194.261 37.0213 194.408 37.1122 194.589 37.1804C194.774 37.2514 194.999 37.2869 195.263 37.2869C195.658 37.2869 195.983 37.1903 196.239 36.9972C196.497 36.8068 196.626 36.4872 196.626 36.0384V34.8409H196.55C196.47 35.0227 196.351 35.1946 196.192 35.3565C196.033 35.5185 195.828 35.6506 195.578 35.7528C195.328 35.8551 195.03 35.9062 194.683 35.9062C194.192 35.9062 193.744 35.7926 193.341 35.5653C192.94 35.3352 192.621 34.9844 192.382 34.5128C192.146 34.0384 192.028 33.4389 192.028 32.7145C192.028 31.973 192.149 31.3537 192.391 30.8565C192.632 30.3594 192.953 29.9872 193.354 29.7401C193.757 29.4929 194.199 29.3693 194.679 29.3693C195.045 29.3693 195.352 29.4318 195.599 29.5568C195.847 29.679 196.045 29.8324 196.196 30.017C196.349 30.1989 196.467 30.3778 196.55 30.554H196.618V29.4545H198.42V36.0639C198.42 36.6207 198.284 37.0866 198.011 37.4616C197.739 37.8366 197.361 38.1179 196.878 38.3054C196.398 38.4957 195.845 38.5909 195.22 38.5909ZM195.259 34.5426C195.551 34.5426 195.798 34.4702 196 34.3253C196.205 34.1776 196.361 33.9673 196.469 33.6946C196.58 33.419 196.635 33.0895 196.635 32.706C196.635 32.3224 196.581 31.9901 196.473 31.7088C196.365 31.4247 196.209 31.2045 196.004 31.0483C195.8 30.892 195.551 30.8139 195.259 30.8139C194.96 30.8139 194.709 30.8949 194.504 31.0568C194.3 31.2159 194.145 31.4375 194.04 31.7216C193.935 32.0057 193.882 32.3338 193.882 32.706C193.882 33.0838 193.935 33.4105 194.04 33.6861C194.148 33.9588 194.303 34.1705 194.504 34.321C194.709 34.4687 194.96 34.5426 195.259 34.5426ZM203.196 31.6364C203.196 30.5625 203.336 29.5753 203.614 28.6747C203.895 27.7713 204.296 26.9403 204.816 26.1818H205.702C205.498 26.4631 205.306 26.8097 205.127 27.2216C204.951 27.6307 204.796 28.081 204.662 28.5724C204.529 29.0611 204.424 29.5668 204.347 30.0895C204.273 30.6122 204.236 31.1278 204.236 31.6364C204.236 32.3125 204.301 32.9986 204.432 33.6946C204.563 34.3906 204.739 35.0369 204.961 35.6335C205.182 36.2301 205.429 36.7159 205.702 37.0909H204.816C204.296 36.3324 203.895 35.5028 203.614 34.6023C203.336 33.6989 203.196 32.7102 203.196 31.6364ZM207.169 36V35.233L210.05 32.0795C210.388 31.7102 210.666 31.3892 210.885 31.1165C211.104 30.8409 211.266 30.5824 211.371 30.3409C211.479 30.0966 211.533 29.8409 211.533 29.5739C211.533 29.267 211.459 29.0014 211.311 28.777C211.166 28.5526 210.967 28.3793 210.714 28.2571C210.462 28.1349 210.178 28.0739 209.862 28.0739C209.527 28.0739 209.234 28.1435 208.984 28.2827C208.737 28.419 208.545 28.6108 208.409 28.858C208.276 29.1051 208.209 29.3949 208.209 29.7273H207.203C207.203 29.2159 207.321 28.767 207.557 28.3807C207.793 27.9943 208.114 27.6932 208.52 27.4773C208.929 27.2614 209.388 27.1534 209.896 27.1534C210.408 27.1534 210.861 27.2614 211.256 27.4773C211.651 27.6932 211.96 27.9844 212.185 28.3509C212.409 28.7173 212.521 29.125 212.521 29.5739C212.521 29.8949 212.463 30.2088 212.347 30.5156C212.233 30.8196 212.034 31.1591 211.75 31.5341C211.469 31.9062 211.078 32.3608 210.578 32.8977L208.618 34.9943V35.0625H212.675V36H207.169ZM217.281 36.1193C216.639 36.1193 216.092 35.9446 215.641 35.5952C215.189 35.2429 214.844 34.733 214.605 34.0653C214.366 33.3949 214.247 32.5852 214.247 31.6364C214.247 30.6932 214.366 29.8878 214.605 29.2202C214.847 28.5497 215.193 28.0384 215.645 27.6861C216.099 27.331 216.645 27.1534 217.281 27.1534C217.918 27.1534 218.462 27.331 218.913 27.6861C219.368 28.0384 219.714 28.5497 219.953 29.2202C220.195 29.8878 220.315 30.6932 220.315 31.6364C220.315 32.5852 220.196 33.3949 219.957 34.0653C219.719 34.733 219.374 35.2429 218.922 35.5952C218.47 35.9446 217.923 36.1193 217.281 36.1193ZM217.281 35.1818C217.918 35.1818 218.412 34.875 218.764 34.2614C219.116 33.6477 219.293 32.7727 219.293 31.6364C219.293 30.8807 219.212 30.2372 219.05 29.706C218.891 29.1747 218.661 28.7699 218.359 28.4915C218.061 28.2131 217.702 28.0739 217.281 28.0739C216.651 28.0739 216.158 28.3849 215.803 29.0071C215.447 29.6264 215.27 30.5028 215.27 31.6364C215.27 32.392 215.349 33.0341 215.509 33.5625C215.668 34.0909 215.896 34.4929 216.195 34.7685C216.496 35.044 216.858 35.1818 217.281 35.1818ZM224.781 36.1193C224.139 36.1193 223.592 35.9446 223.141 35.5952C222.689 35.2429 222.344 34.733 222.105 34.0653C221.866 33.3949 221.747 32.5852 221.747 31.6364C221.747 30.6932 221.866 29.8878 222.105 29.2202C222.347 28.5497 222.693 28.0384 223.145 27.6861C223.599 27.331 224.145 27.1534 224.781 27.1534C225.418 27.1534 225.962 27.331 226.413 27.6861C226.868 28.0384 227.214 28.5497 227.453 29.2202C227.695 29.8878 227.815 30.6932 227.815 31.6364C227.815 32.5852 227.696 33.3949 227.457 34.0653C227.219 34.733 226.874 35.2429 226.422 35.5952C225.97 35.9446 225.423 36.1193 224.781 36.1193ZM224.781 35.1818C225.418 35.1818 225.912 34.875 226.264 34.2614C226.616 33.6477 226.793 32.7727 226.793 31.6364C226.793 30.8807 226.712 30.2372 226.55 29.706C226.391 29.1747 226.161 28.7699 225.859 28.4915C225.561 28.2131 225.202 28.0739 224.781 28.0739C224.151 28.0739 223.658 28.3849 223.303 29.0071C222.947 29.6264 222.77 30.5028 222.77 31.6364C222.77 32.392 222.849 33.0341 223.009 33.5625C223.168 34.0909 223.396 34.4929 223.695 34.7685C223.996 35.044 224.358 35.1818 224.781 35.1818ZM232.009 34.4659V28.8409H232.963V34.4659H232.009ZM229.673 32.1307V31.1761H235.298V32.1307H229.673ZM240.873 36V27.2727H243.822C244.504 27.2727 245.064 27.3892 245.501 27.6222C245.939 27.8523 246.262 28.169 246.473 28.5724C246.683 28.9759 246.788 29.4347 246.788 29.9489C246.788 30.4631 246.683 30.919 246.473 31.3168C246.262 31.7145 245.94 32.027 245.505 32.2543C245.071 32.4787 244.515 32.5909 243.839 32.5909H241.453V31.6364H243.805C244.271 31.6364 244.646 31.5682 244.93 31.4318C245.217 31.2955 245.424 31.1023 245.552 30.8523C245.683 30.5994 245.748 30.2983 245.748 29.9489C245.748 29.5994 245.683 29.294 245.552 29.0327C245.422 28.7713 245.213 28.5696 244.926 28.4276C244.639 28.2827 244.26 28.2102 243.788 28.2102H241.93V36H240.873ZM244.981 32.0795L247.129 36H245.902L243.788 32.0795H244.981ZM251.087 36.1364C250.456 36.1364 249.912 35.9972 249.455 35.7188C249 35.4375 248.649 35.0455 248.402 34.5426C248.158 34.0369 248.036 33.4489 248.036 32.7784C248.036 32.108 248.158 31.517 248.402 31.0057C248.649 30.4915 248.993 30.0909 249.433 29.804C249.876 29.5142 250.393 29.3693 250.984 29.3693C251.325 29.3693 251.662 29.4261 251.994 29.5398C252.327 29.6534 252.629 29.8381 252.902 30.0938C253.175 30.3466 253.392 30.6818 253.554 31.0994C253.716 31.517 253.797 32.0312 253.797 32.642V33.0682H248.751V32.1989H252.774C252.774 31.8295 252.7 31.5 252.553 31.2102C252.408 30.9205 252.2 30.6918 251.93 30.5241C251.663 30.3565 251.348 30.2727 250.984 30.2727C250.584 30.2727 250.237 30.3722 249.945 30.571C249.655 30.767 249.432 31.0227 249.276 31.3381C249.119 31.6534 249.041 31.9915 249.041 32.3523V32.9318C249.041 33.4261 249.126 33.8452 249.297 34.1889C249.47 34.5298 249.71 34.7898 250.017 34.9688C250.324 35.1449 250.68 35.233 251.087 35.233C251.351 35.233 251.589 35.196 251.803 35.1222C252.018 35.0455 252.205 34.9318 252.361 34.7812C252.517 34.6278 252.638 34.4375 252.723 34.2102L253.695 34.483C253.592 34.8125 253.42 35.1023 253.179 35.3523C252.938 35.5994 252.639 35.7926 252.284 35.9318C251.929 36.0682 251.53 36.1364 251.087 36.1364ZM260.48 29.4545L258.059 36H257.037L254.616 29.4545H255.707L257.514 34.6705H257.582L259.389 29.4545H260.48ZM261.807 36V29.4545H262.813V36H261.807ZM262.319 28.3636C262.123 28.3636 261.953 28.2969 261.811 28.1634C261.672 28.0298 261.603 27.8693 261.603 27.6818C261.603 27.4943 261.672 27.3338 261.811 27.2003C261.953 27.0668 262.123 27 262.319 27C262.515 27 262.682 27.0668 262.821 27.2003C262.963 27.3338 263.034 27.4943 263.034 27.6818C263.034 27.8693 262.963 28.0298 262.821 28.1634C262.682 28.2969 262.515 28.3636 262.319 28.3636ZM267.399 36.1364C266.768 36.1364 266.224 35.9972 265.767 35.7188C265.312 35.4375 264.962 35.0455 264.714 34.5426C264.47 34.0369 264.348 33.4489 264.348 32.7784C264.348 32.108 264.47 31.517 264.714 31.0057C264.962 30.4915 265.305 30.0909 265.746 29.804C266.189 29.5142 266.706 29.3693 267.297 29.3693C267.638 29.3693 267.974 29.4261 268.307 29.5398C268.639 29.6534 268.942 29.8381 269.214 30.0938C269.487 30.3466 269.705 30.6818 269.866 31.0994C270.028 31.517 270.109 32.0312 270.109 32.642V33.0682H265.064V32.1989H269.087C269.087 31.8295 269.013 31.5 268.865 31.2102C268.72 30.9205 268.513 30.6918 268.243 30.5241C267.976 30.3565 267.661 30.2727 267.297 30.2727C266.896 30.2727 266.55 30.3722 266.257 30.571C265.967 30.767 265.744 31.0227 265.588 31.3381C265.432 31.6534 265.354 31.9915 265.354 32.3523V32.9318C265.354 33.4261 265.439 33.8452 265.609 34.1889C265.783 34.5298 266.023 34.7898 266.33 34.9688C266.636 35.1449 266.993 35.233 267.399 35.233C267.663 35.233 267.902 35.196 268.115 35.1222C268.331 35.0455 268.517 34.9318 268.673 34.7812C268.83 34.6278 268.95 34.4375 269.036 34.2102L270.007 34.483C269.905 34.8125 269.733 35.1023 269.491 35.3523C269.25 35.5994 268.952 35.7926 268.597 35.9318C268.241 36.0682 267.842 36.1364 267.399 36.1364ZM273.122 36L271.128 29.4545H272.185L273.599 34.4659H273.668L275.065 29.4545H276.139L277.52 34.4489H277.588L279.003 29.4545H280.06L278.065 36H277.077L275.645 30.9716H275.543L274.111 36H273.122ZM286.026 30.9205L285.122 31.1761C285.065 31.0256 284.982 30.8793 284.871 30.7372C284.763 30.5923 284.615 30.473 284.428 30.3793C284.24 30.2855 284 30.2386 283.707 30.2386C283.307 30.2386 282.973 30.331 282.706 30.5156C282.442 30.6974 282.31 30.929 282.31 31.2102C282.31 31.4602 282.401 31.6577 282.582 31.8026C282.764 31.9474 283.048 32.0682 283.435 32.1648L284.406 32.4034C284.991 32.5455 285.428 32.7628 285.714 33.0554C286.001 33.3452 286.145 33.7187 286.145 34.1761C286.145 34.5511 286.037 34.8864 285.821 35.1818C285.608 35.4773 285.31 35.7102 284.926 35.8807C284.543 36.0511 284.097 36.1364 283.588 36.1364C282.92 36.1364 282.368 35.9915 281.93 35.7017C281.493 35.4119 281.216 34.9886 281.099 34.4318L282.054 34.1932C282.145 34.5455 282.317 34.8097 282.57 34.9858C282.825 35.1619 283.159 35.25 283.571 35.25C284.04 35.25 284.412 35.1506 284.688 34.9517C284.966 34.75 285.105 34.5085 285.105 34.2273C285.105 34 285.026 33.8097 284.866 33.6562C284.707 33.5 284.463 33.3835 284.134 33.3068L283.043 33.0511C282.443 32.9091 282.003 32.6889 281.722 32.3906C281.443 32.0895 281.304 31.7131 281.304 31.2614C281.304 30.892 281.408 30.5653 281.615 30.2812C281.825 29.9972 282.111 29.7741 282.472 29.6122C282.835 29.4503 283.247 29.3693 283.707 29.3693C284.355 29.3693 284.864 29.5114 285.233 29.7955C285.605 30.0795 285.869 30.4545 286.026 30.9205ZM289.806 32.3182C289.806 33.392 289.666 34.3807 289.385 35.2841C289.106 36.1847 288.707 37.0142 288.187 37.7727H287.301C287.505 37.4915 287.696 37.1449 287.872 36.733C288.051 36.3239 288.207 35.875 288.341 35.3864C288.474 34.8949 288.578 34.3878 288.652 33.8651C288.728 33.3395 288.767 32.8239 288.767 32.3182C288.767 31.642 288.701 30.956 288.571 30.2599C288.44 29.5639 288.264 28.9176 288.042 28.321C287.821 27.7244 287.574 27.2386 287.301 26.8636H288.187C288.707 27.6222 289.106 28.4531 289.385 29.3565C289.666 30.2571 289.806 31.2443 289.806 32.3182Z" fill="black"/>
<mask id="path-3-inside-1_12738_7752" fill="white">
<path d="M43.6158 29.6125C43.4807 29.2216 43.1221 28.9373 42.69 28.878L38.3132 28.2784L36.3575 24.5525C35.9702 23.8158 34.6904 23.8158 34.3031 24.5525L32.3474 28.2784L27.981 28.878C27.5501 28.9373 27.1915 29.2226 27.0564 29.6137C26.9212 30.0037 27.0335 30.4326 27.3462 30.7198L30.5131 33.6301L29.766 37.7361C29.6927 38.1412 29.8692 38.5517 30.222 38.7937C30.576 39.0345 31.0447 39.066 31.4296 38.8747L35.3299 36.9356L39.2415 38.8747C39.4089 38.9579 39.5922 38.999 39.7743 38.999C40.0115 38.999 40.2486 38.9288 40.4491 38.7939C40.8021 38.5507 40.9784 38.1414 40.9051 37.7363L40.1593 33.6302L43.3262 30.72C43.6389 30.4336 43.751 30.0037 43.6158 29.6125Z"/>
<path d="M61.9479 29.6125C61.8127 29.2216 61.4541 28.9373 61.0221 28.878L56.6453 28.2784L54.6895 24.5525C54.3023 23.8158 53.0224 23.8158 52.6352 24.5525L50.6794 28.2784L46.313 28.878C45.8822 28.9373 45.5236 29.2226 45.3884 29.6137C45.2533 30.0037 45.3656 30.4326 45.6783 30.7198L48.8452 33.6301L48.0981 37.7361C48.0248 38.1412 48.2013 38.5529 48.5541 38.7937C48.907 39.0345 49.3767 39.066 49.7617 38.8747L53.6619 36.9356L57.5736 38.8747C57.7409 38.9579 57.9243 38.999 58.1064 38.999C58.3435 38.999 58.5806 38.9288 58.7812 38.7939C59.1342 38.5507 59.3105 38.1414 59.2372 37.7363L58.4913 33.6302L61.6582 30.72C61.9709 30.4336 62.0831 30.0037 61.9479 29.6125Z"/>
<path d="M80.28 29.6125C80.1448 29.2216 79.7862 28.9373 79.3541 28.878L74.9773 28.2784L73.0216 24.5525C72.6344 23.8158 71.3545 23.8158 70.9672 24.5525L69.0115 28.2784L64.6451 28.878C64.2143 28.9373 63.8557 29.2226 63.7205 29.6137C63.5853 30.0037 63.6976 30.4326 64.0103 30.7198L67.1772 33.6301L66.4302 37.7361C66.3569 38.1412 66.5333 38.5517 66.8861 38.7937C67.2402 39.0345 67.7088 39.066 68.0938 38.8747L71.9938 36.9356L75.9055 38.8747C76.0728 38.9579 76.2562 38.999 76.4383 38.999C76.6754 38.999 76.9125 38.9288 77.1131 38.7939C77.4661 38.5507 77.6424 38.1414 77.5691 37.7363L76.8232 33.6302L79.9901 30.72C80.303 30.4336 80.4151 30.0037 80.28 29.6125Z"/>
<path d="M98.612 29.6125C98.4768 29.2216 98.1183 28.9373 97.6862 28.878L93.3094 28.2784L91.3537 24.5525C90.9664 23.8158 89.6866 23.8158 89.2993 24.5525L87.3436 28.2784L82.9772 28.878C82.5463 28.9373 82.1877 29.2226 82.0525 29.6137C81.9174 30.0037 82.0297 30.4326 82.3424 30.7198L85.5093 33.6301L84.7622 37.7361C84.6889 38.1412 84.8654 38.5517 85.2182 38.7937C85.5722 39.0345 86.0408 39.066 86.4258 38.8747L90.3259 36.9356L94.2375 38.8747C94.4049 38.9579 94.5882 38.999 94.7703 38.999C95.0075 38.999 95.2446 38.9288 95.4452 38.7939C95.7981 38.5507 95.9744 38.1414 95.9011 37.7363L95.1553 33.6302L98.3222 30.72C98.6349 30.4336 98.7472 30.0037 98.612 29.6125Z"/>
<path d="M116.944 29.6125C116.808 29.2216 116.45 28.9373 116.018 28.878L111.641 28.2784L109.686 24.5525C109.298 23.8158 108.019 23.8158 107.631 24.5525L105.676 28.2784L101.309 28.878C100.878 28.9373 100.52 29.2226 100.385 29.6137C100.249 30.0037 100.362 30.4326 100.674 30.7198L103.841 33.6301L103.094 37.7361C103.021 38.1412 103.197 38.5517 103.55 38.7937C103.75 38.9298 103.986 38.9989 104.223 38.9989C104.406 38.9989 104.589 38.9578 104.759 38.8746L108.659 36.9355L112.572 38.8746C112.957 39.068 113.424 39.0355 113.778 38.7925C114.13 38.5506 114.307 38.1412 114.233 37.736L113.488 33.6299L116.654 30.7196C116.967 30.4336 117.078 30.0037 116.944 29.6125Z"/>
</mask>
<path d="M43.6158 29.6125C43.4807 29.2216 43.1221 28.9373 42.69 28.878L38.3132 28.2784L36.3575 24.5525C35.9702 23.8158 34.6904 23.8158 34.3031 24.5525L32.3474 28.2784L27.981 28.878C27.5501 28.9373 27.1915 29.2226 27.0564 29.6137C26.9212 30.0037 27.0335 30.4326 27.3462 30.7198L30.5131 33.6301L29.766 37.7361C29.6927 38.1412 29.8692 38.5517 30.222 38.7937C30.576 39.0345 31.0447 39.066 31.4296 38.8747L35.3299 36.9356L39.2415 38.8747C39.4089 38.9579 39.5922 38.999 39.7743 38.999C40.0115 38.999 40.2486 38.9288 40.4491 38.7939C40.8021 38.5507 40.9784 38.1414 40.9051 37.7363L40.1593 33.6302L43.3262 30.72C43.6389 30.4336 43.751 30.0037 43.6158 29.6125Z" fill="#FFB500"/>
<path d="M61.9479 29.6125C61.8127 29.2216 61.4541 28.9373 61.0221 28.878L56.6453 28.2784L54.6895 24.5525C54.3023 23.8158 53.0224 23.8158 52.6352 24.5525L50.6794 28.2784L46.313 28.878C45.8822 28.9373 45.5236 29.2226 45.3884 29.6137C45.2533 30.0037 45.3656 30.4326 45.6783 30.7198L48.8452 33.6301L48.0981 37.7361C48.0248 38.1412 48.2013 38.5529 48.5541 38.7937C48.907 39.0345 49.3767 39.066 49.7617 38.8747L53.6619 36.9356L57.5736 38.8747C57.7409 38.9579 57.9243 38.999 58.1064 38.999C58.3435 38.999 58.5806 38.9288 58.7812 38.7939C59.1342 38.5507 59.3105 38.1414 59.2372 37.7363L58.4913 33.6302L61.6582 30.72C61.9709 30.4336 62.0831 30.0037 61.9479 29.6125Z" fill="#FFB500"/>
<path d="M80.28 29.6125C80.1448 29.2216 79.7862 28.9373 79.3541 28.878L74.9773 28.2784L73.0216 24.5525C72.6344 23.8158 71.3545 23.8158 70.9672 24.5525L69.0115 28.2784L64.6451 28.878C64.2143 28.9373 63.8557 29.2226 63.7205 29.6137C63.5853 30.0037 63.6976 30.4326 64.0103 30.7198L67.1772 33.6301L66.4302 37.7361C66.3569 38.1412 66.5333 38.5517 66.8861 38.7937C67.2402 39.0345 67.7088 39.066 68.0938 38.8747L71.9938 36.9356L75.9055 38.8747C76.0728 38.9579 76.2562 38.999 76.4383 38.999C76.6754 38.999 76.9125 38.9288 77.1131 38.7939C77.4661 38.5507 77.6424 38.1414 77.5691 37.7363L76.8232 33.6302L79.9901 30.72C80.303 30.4336 80.4151 30.0037 80.28 29.6125Z" fill="#FFB500"/>
<path d="M98.612 29.6125C98.4768 29.2216 98.1183 28.9373 97.6862 28.878L93.3094 28.2784L91.3537 24.5525C90.9664 23.8158 89.6866 23.8158 89.2993 24.5525L87.3436 28.2784L82.9772 28.878C82.5463 28.9373 82.1877 29.2226 82.0525 29.6137C81.9174 30.0037 82.0297 30.4326 82.3424 30.7198L85.5093 33.6301L84.7622 37.7361C84.6889 38.1412 84.8654 38.5517 85.2182 38.7937C85.5722 39.0345 86.0408 39.066 86.4258 38.8747L90.3259 36.9356L94.2375 38.8747C94.4049 38.9579 94.5882 38.999 94.7703 38.999C95.0075 38.999 95.2446 38.9288 95.4452 38.7939C95.7981 38.5507 95.9744 38.1414 95.9011 37.7363L95.1553 33.6302L98.3222 30.72C98.6349 30.4336 98.7472 30.0037 98.612 29.6125Z" fill="#FFB500"/>
<path d="M116.944 29.6125C116.808 29.2216 116.45 28.9373 116.018 28.878L111.641 28.2784L109.686 24.5525C109.298 23.8158 108.019 23.8158 107.631 24.5525L105.676 28.2784L101.309 28.878C100.878 28.9373 100.52 29.2226 100.385 29.6137C100.249 30.0037 100.362 30.4326 100.674 30.7198L103.841 33.6301L103.094 37.7361C103.021 38.1412 103.197 38.5517 103.55 38.7937C103.75 38.9298 103.986 38.9989 104.223 38.9989C104.406 38.9989 104.589 38.9578 104.759 38.8746L108.659 36.9355L112.572 38.8746C112.957 39.068 113.424 39.0355 113.778 38.7925C114.13 38.5506 114.307 38.1412 114.233 37.736L113.488 33.6299L116.654 30.7196C116.967 30.4336 117.078 30.0037 116.944 29.6125Z" fill="#FFB500"/>
<path d="M43.6158 29.6125C43.4807 29.2216 43.1221 28.9373 42.69 28.878L38.3132 28.2784L36.3575 24.5525C35.9702 23.8158 34.6904 23.8158 34.3031 24.5525L32.3474 28.2784L27.981 28.878C27.5501 28.9373 27.1915 29.2226 27.0564 29.6137C26.9212 30.0037 27.0335 30.4326 27.3462 30.7198L30.5131 33.6301L29.766 37.7361C29.6927 38.1412 29.8692 38.5517 30.222 38.7937C30.576 39.0345 31.0447 39.066 31.4296 38.8747L35.3299 36.9356L39.2415 38.8747C39.4089 38.9579 39.5922 38.999 39.7743 38.999C40.0115 38.999 40.2486 38.9288 40.4491 38.7939C40.8021 38.5507 40.9784 38.1414 40.9051 37.7363L40.1593 33.6302L43.3262 30.72C43.6389 30.4336 43.751 30.0037 43.6158 29.6125Z" stroke="black" stroke-width="2" mask="url(#path-3-inside-1_12738_7752)"/>
<path d="M61.9479 29.6125C61.8127 29.2216 61.4541 28.9373 61.0221 28.878L56.6453 28.2784L54.6895 24.5525C54.3023 23.8158 53.0224 23.8158 52.6352 24.5525L50.6794 28.2784L46.313 28.878C45.8822 28.9373 45.5236 29.2226 45.3884 29.6137C45.2533 30.0037 45.3656 30.4326 45.6783 30.7198L48.8452 33.6301L48.0981 37.7361C48.0248 38.1412 48.2013 38.5529 48.5541 38.7937C48.907 39.0345 49.3767 39.066 49.7617 38.8747L53.6619 36.9356L57.5736 38.8747C57.7409 38.9579 57.9243 38.999 58.1064 38.999C58.3435 38.999 58.5806 38.9288 58.7812 38.7939C59.1342 38.5507 59.3105 38.1414 59.2372 37.7363L58.4913 33.6302L61.6582 30.72C61.9709 30.4336 62.0831 30.0037 61.9479 29.6125Z" stroke="black" stroke-width="2" mask="url(#path-3-inside-1_12738_7752)"/>
<path d="M80.28 29.6125C80.1448 29.2216 79.7862 28.9373 79.3541 28.878L74.9773 28.2784L73.0216 24.5525C72.6344 23.8158 71.3545 23.8158 70.9672 24.5525L69.0115 28.2784L64.6451 28.878C64.2143 28.9373 63.8557 29.2226 63.7205 29.6137C63.5853 30.0037 63.6976 30.4326 64.0103 30.7198L67.1772 33.6301L66.4302 37.7361C66.3569 38.1412 66.5333 38.5517 66.8861 38.7937C67.2402 39.0345 67.7088 39.066 68.0938 38.8747L71.9938 36.9356L75.9055 38.8747C76.0728 38.9579 76.2562 38.999 76.4383 38.999C76.6754 38.999 76.9125 38.9288 77.1131 38.7939C77.4661 38.5507 77.6424 38.1414 77.5691 37.7363L76.8232 33.6302L79.9901 30.72C80.303 30.4336 80.4151 30.0037 80.28 29.6125Z" stroke="black" stroke-width="2" mask="url(#path-3-inside-1_12738_7752)"/>
<path d="M98.612 29.6125C98.4768 29.2216 98.1183 28.9373 97.6862 28.878L93.3094 28.2784L91.3537 24.5525C90.9664 23.8158 89.6866 23.8158 89.2993 24.5525L87.3436 28.2784L82.9772 28.878C82.5463 28.9373 82.1877 29.2226 82.0525 29.6137C81.9174 30.0037 82.0297 30.4326 82.3424 30.7198L85.5093 33.6301L84.7622 37.7361C84.6889 38.1412 84.8654 38.5517 85.2182 38.7937C85.5722 39.0345 86.0408 39.066 86.4258 38.8747L90.3259 36.9356L94.2375 38.8747C94.4049 38.9579 94.5882 38.999 94.7703 38.999C95.0075 38.999 95.2446 38.9288 95.4452 38.7939C95.7981 38.5507 95.9744 38.1414 95.9011 37.7363L95.1553 33.6302L98.3222 30.72C98.6349 30.4336 98.7472 30.0037 98.612 29.6125Z" stroke="black" stroke-width="2" mask="url(#path-3-inside-1_12738_7752)"/>
<path d="M116.944 29.6125C116.808 29.2216 116.45 28.9373 116.018 28.878L111.641 28.2784L109.686 24.5525C109.298 23.8158 108.019 23.8158 107.631 24.5525L105.676 28.2784L101.309 28.878C100.878 28.9373 100.52 29.2226 100.385 29.6137C100.249 30.0037 100.362 30.4326 100.674 30.7198L103.841 33.6301L103.094 37.7361C103.021 38.1412 103.197 38.5517 103.55 38.7937C103.75 38.9298 103.986 38.9989 104.223 38.9989C104.406 38.9989 104.589 38.9578 104.759 38.8746L108.659 36.9355L112.572 38.8746C112.957 39.068 113.424 39.0355 113.778 38.7925C114.13 38.5506 114.307 38.1412 114.233 37.736L113.488 33.6299L116.654 30.7196C116.967 30.4336 117.078 30.0037 116.944 29.6125Z" stroke="black" stroke-width="2" mask="url(#path-3-inside-1_12738_7752)"/>
<defs>
<filter id="filter0_di_12738_7752" x="0.000976562" y="0" width="324" height="74" filterUnits="userSpaceOnUse" color-interpolation-filters="sRGB">
<feFlood flood-opacity="0" result="BackgroundImageFix"/>
<feColorMatrix in="SourceAlpha" type="matrix" values="0 0 0 0 0 0 0 0 0 0 0 0 0 0 0 0 0 0 127 0" result="hardAlpha"/>
<feOffset dy="6"/>
<feGaussianBlur stdDeviation="6"/>
<feComposite in2="hardAlpha" operator="out"/>
<feColorMatrix type="matrix" values="0 0 0 0 0 0 0 0 0 0 0 0 0 0 0 0 0 0 0.25 0"/>
<feBlend mode="normal" in2="BackgroundImageFix" result="effect1_dropShadow_12738_7752"/>
<feBlend mode="normal" in="SourceGraphic" in2="effect1_dropShadow_12738_7752" result="shape"/>
<feColorMatrix in="SourceAlpha" type="matrix" values="0 0 0 0 0 0 0 0 0 0 0 0 0 0 0 0 0 0 127 0" result="hardAlpha"/>
<feOffset dy="12"/>
<feGaussianBlur stdDeviation="6"/>
<feComposite in2="hardAlpha" operator="arithmetic" k2="-1" k3="1"/>
<feColorMatrix type="matrix" values="0 0 0 0 0 0 0 0 0 0 0 0 0 0 0 0 0 0 0.25 0"/>
<feBlend mode="normal" in2="shape" result="effect2_innerShadow_12738_7752"/>
</filter>
</defs>
</svg>
